<svg width="13px" height="13px" viewBox="0 0 10 10" xmlns="http://www.w3.org/2000/svg"><path d="M9.757 1.424A.804.804 0 0010 .834c0-.231-.08-.428-.243-.59A.804.804 0 009.167 0c-.23 0-.427.08-.59.243L5 3.82 1.424.243A.804.804 0 00.834 0C.602 0 .405.08.243.243A.804.804 0 000 .833c0 .23.08.427.243.59L3.82 5 .243 8.576a.804.804 0 00-.243.59c0 .231.08.428.243.59.163.163.36.245.59.244.23 0 .427-.08.59-.243L5 6.18l3.576 3.576c.164.162.36.244.59.243.231 0 .428-.08.59-.243a.804.804 0 00.244-.59c0-.23-.08-.427-.243-.59L6.18 5l3.576-3.576z" fill="#212721" fill-rule="evenodd"></path></svg>